<svg xmlns="http://www.w3.org/2000/svg" width="563.089" height="438.297" viewBox="0 0 563.089 438.297"><defs><style>.a,.c{fill:#a5b4d8;}.a{stroke:#a5b4d8;}.a,.b,.c,.d,.e,.f{fill-rule:evenodd;}.b{fill:#fff6d5;}.b,.c,.d,.e{stroke:blue;}.d{fill:none;}.e{fill:#a0c6e9;}.f{fill:rgba(59,199,59,0.49);stroke:#0a10fe;stroke-width:2px;}</style></defs><g transform="translate(-774.605 -1405.695)"><path class="a" d="M24.123,304.949l.5,25.07,312.708-.5,2.34,3.51,4.513,1.5s.5,6.853.669,7.521,7.02,0,7.02,0l5.014,4.178-1.17,3.176,3.51,2.006-.669,9.025,1.337,3.51-2.006,3.008,8.19,12.535,4.513.334.836,3.008,6.184.167,3.343,1.17,3.176,4.513.334,2.006,56.658,35.6-3.176,12.7-.669,7.187,3.844-4.011,8.19-6.351,5.85-6.685,5.515-5.014-7.521-10.362,17.883-10.529-4.847-4.011-.334-7.855,5.515-66.686L467.7,323l18.552-66.018-1-25.906,2.173-2.173-.167-49.137-2.841-2.006v-4.345l-2.507-1.671-3.677,1.5.167,4.011-1.838,1.671-2.507-5.85,1.671-6.518,4.178-7.855-3.008-5.683.167-8.357-1.671-12.7-3.343-4.345,2.841-10.529,5.181-5.181s-1-4.513-1-5.515-.167-7.354-.167-7.354l-1.671-8.19s-2.507-2.841-2.34-3.51,3.51-2.173,3.51-2.173l-4.345-5.014-.167-15.376,1.337-3.008,3.343-3.008.836-3.343-1.838-6.351,3.176-3.51s-1.337-2.841-1-3.677.167-6.685.167-6.685l-92.091,1-13.371,1.838-6.351,3.343-5.181.334s-3.844,4.513-4.513,4.513h-4.513l-10.362,5.348-5.348,5.515-1.5,3.51-7.855,5.348-6.853,4.68s-15.878,17.048-15.878,17.883,2.674,4.513,2.674,4.513L305.911,95.7l-10.2,8.022-9.192,7.855-6.017,2.173-4.346,5.014-4.68,2.006L265.3,125.28l6.685,4.847L277,127.453l1,2.507,4.178-.669-.5,4.513-5.348,1.5,3.677,4.178s8.022-5.683,8.022-5.014-.5,4.178-1.17,4.68a31.206,31.206,0,0,1-4.346,1.671l-.5,4.345-6.017,6.017-.5-5.515-3.51,1.5-3.176,3.343,5.85,6.518s.836,7.521,1.5,7.521,1,8.357,1,8.357v6.518l-3.176,2.34-3.844,3.008-6.184-3.343s-3.51-1.17-4.345.167-3.677,6.184-3.677,6.184-4.513.836-5.348,1.5-5.014,5.683-5.014,5.683l-2.674,3.51-1.838,2.841s-5.181.334-5.85.836-8.022,2.674-8.022,2.674-1.17-1.17-1.17.836-.836,3.51-2.34,3.343-4.178-2.34-4.178-2.34l-5.515-.669-4.513-1.337s-4.847-.334-5.683.334-7.02.836-10.2.836a17.508,17.508,0,0,0-6.518,1.337c-.836.334-5.181,2.173-6.017,2.674s-5.683-1.5-5.683-1.5a11.99,11.99,0,0,0-3.176-3.677c-1.671-1-5.181-3.008-6.518-3.677s-3.51-1.5-3.51-1.5l-16.713-2.674-33.26-.167-11.365,2.841-5.85,3.176L87.8,202.5s-8.691,3.677-9.36,3.844-4.513,1-4.513,1l1,9.192-1.671,6.852,2.674,4.346,6.351-1.839,4.847,3.51-3.176,4.68s-1.671,2.34-.836,3.677,2.674,4.011,2.674,4.011l1.337,5.181,2.006,4.178-.669,4.011-5.348,3.008-9.192,5.515-.5,3.51-4.513,4.345-.167,4.178-4.345.5-8.19,5.85L49.862,285.9l-2.34,3.51L40,294.253,31.143,300.6l-4.68,3.677Z" transform="translate(750.99 1371.005)"/><path class="b" d="M107.813,344.206l-.032,3.021.482,2.668a19.183,19.183,0,0,0,1.864,2.475c.257.064,2.346.161,2.346.161s3.343-4.082,3.311-4.21,1.221-3.086,1.221-3.086l-3.664-2.636-3.407.8Z" transform="translate(719.497 1255.284)"/><path class="b" d="M681.419,689.2v6.5l-4.576,6.262L675.4,699.8l3.492-6.142Z" transform="translate(505.82 1124.808)"/><path class="c" d="M656.943,713.583l6.022-.241,2.77.723,1.445,3.011-4.095,4.7-5.66,3.011-3.011,2.89-1.806-.843.6-5.781,3.011-.6.12-3.733Z" transform="translate(514.4 1115.72)"/><path class="c" d="M686.312,668.977l-3.492,3.613-.482,3.493-3.854,3.131-.12,2.168-1.807.482.843,3.131,2.529.963.241,1.807,3.733.482,4.7-1.2-.12-3.613,3.613-.482,1.566,2.409-5.179,3.011-3.492,1.2a26.265,26.265,0,0,0,4.095-.241c.482-.241,9.394-3.131,9.394-3.131l5.9-.241,3.974.12v-1.084l-6.021-.12,2.288-1.686,7.587-.361,2.89.6,5.419-2.529,4.7-.6,3.492.963h4.938l-.482,1.927-8.069.12-3.252,2.409-4.817.6-5.9,1.325-1.084-1.927,7.105-1.325,6.985-2.047,1.566-2.89s1.686-1.445,2.288-1.445,4.938-.963,4.938-.963l3.131-1.445,3.252,1.806,2.65-2.77,5.54-.963,4.335-2.047,2.529,1.445,3.733-2.047,4.576.361,1.806-1.927-1.927-1.927a15.844,15.844,0,0,0,3.733,1.445c1.2.12,4.817-2.168,4.817-2.168l1.2,1.084-3.733,1.2,1.2.6,8.31-3.733,3.613-2.409s4.336-2.288,4.215-1.566S784.1,664.4,784.1,664.4l5.058-2.409,3.131-.843,1.325-.843,4.7-3.011-.12,2.047,4.938-2.409,3.613-2.89,8.43-3.372,4.335-1.927,8.671-3.011,3.372-3.854-1.686-1.084-2.168-.843-4.7,3.372s-3.613,2.168-4.095,2.047-4.576,2.529-4.576,2.529-1.806.482-2.047-.241-1.807-4.336-1.807-4.336l-3.372,1.686-3.974-.241s-3.131.963-3.131,1.686-.12,3.372-.12,3.372l-4.817-.6-2.77,3.613a20.3,20.3,0,0,0-2.529,2.77,27.372,27.372,0,0,1-3.252,3.252s-3.733-2.89-4.215-2.77-4.336,0-4.336,0l1.807-2.649,4.215-.843.723-3.011,3.854-.361s1.566-4.095,2.649-3.854a13.771,13.771,0,0,0,3.252,0l-.241-4.576,5.179-.843.963,3.613-4.817-1.2-.482-3.613s5.9-1.445,6.383-1.686,6.022-3.733,6.022-3.733l2.89-2.649-5.178,1.084-4.336,2.288-5.3.241-3.492,4.817s-4.576,2.409-4.817,3.011-3.733,3.492-3.733,3.492l-4.215,3.974s-6.142-.241-6.624,0a21.118,21.118,0,0,0-2.168,1.806l-21.316-.241-3.613.361-1.927,1.807-2.288-1.2-2.409,3.613-1.807,3.131-5.058-2.047-3.613-2.168s-3.733,1.806-4.456,1.325a30.269,30.269,0,0,1-2.89-3.011l-1.325,4.095-3.613-3.131-2.168,2.288-.723,2.649-4.095-1.686-2.89,1.566-2.89,3.131.963,4.817L701,660.908l-1.807.482-1.806,1.325,1.927,1.445.963,3.854-3.613-3.613-1.927,1.325,1.806,3.372-4.456-2.288-2.409,2.89-2.168-1.084Z" transform="translate(505.384 1146.838)"/><path class="b" d="M893.811,640.375l-.193,1.864s-1.543.257-1.479.579.579,2.057.579,2.057l2.057.064.9,1.093-.129,2.378,1.8-1.864-.386-3.793-2.25-2.378Z" transform="translate(424.23 1143.188)"/><path class="b" d="M411.5,186.958h-3.375l-1.205,1.446.241.868s2.844.193,2.844-.048S411.6,186.91,411.5,186.958Z" transform="translate(606.887 1313.875)"/><path class="b" d="M423.508,191.152l-3.134,1.109-.386,1.928.1,3.134,3.182-.289s.82-2.121.868-2.507a12.053,12.053,0,0,1,1.639-2.121V190.67Z" transform="translate(601.968 1312.477)"/><path class="b" d="M406.292,208.965l-2.459-.048-1.639,1.736-.916,1.446,2.555.1,2.459-2.025Z" transform="translate(609.012 1305.608)"/><path class="b" d="M415.573,208.376l-1.639,1.928-2.218,1.35,1.35,1.784s2.025-1.495,2.025-1.928a13.785,13.785,0,0,1,.964-2.411Z" transform="translate(605.082 1305.812)"/><path class="d" d="M24.123,304.949l2.34-.668,4.68-3.677L40,294.253l7.521-4.847,2.34-3.51,6.351-3.844,8.19-5.85,4.345-.5.167-4.178,4.513-4.345.5-3.51,9.192-5.515,5.348-3.008.669-4.011-2.006-4.178L85.8,241.772s-1.838-2.674-2.674-4.011.836-3.677.836-3.677l3.176-4.68-4.847-3.51-6.351,1.839-2.674-4.346,1.671-6.852-1-9.192s3.844-.836,4.513-1S87.8,202.5,87.8,202.5l7.187.167,5.85-3.176,11.365-2.841,33.26.167,16.713,2.674s2.173.836,3.51,1.5,4.847,2.674,6.518,3.677a11.99,11.99,0,0,1,3.176,3.677s4.847,2.006,5.683,1.5,5.181-2.34,6.017-2.674a17.508,17.508,0,0,1,6.518-1.337c3.176,0,9.359-.167,10.2-.836s5.683-.334,5.683-.334l4.513,1.337,5.515.669s2.674,2.173,4.178,2.34,2.34-1.337,2.34-3.343,1.17-.836,1.17-.836,7.354-2.173,8.022-2.674,5.85-.836,5.85-.836l1.838-2.841,2.674-3.51s4.178-5.014,5.014-5.683,5.348-1.5,5.348-1.5,2.841-4.847,3.677-6.184,4.345-.167,4.345-.167l6.184,3.343,3.844-3.008,3.176-2.34v-6.518s-.334-8.357-1-8.357-1.5-7.521-1.5-7.521l-5.85-6.518,3.176-3.343,3.51-1.5.5,5.515,6.017-6.017.5-4.345a31.206,31.206,0,0,0,4.346-1.671c.669-.5,1.17-4.011,1.17-4.68s-8.022,5.014-8.022,5.014l-3.677-4.178,5.348-1.5.5-4.513L278,129.96l-1-2.507-5.014,2.674L265.3,125.28l6.184-4.513,4.68-2.006,4.346-5.014,6.017-2.173,9.192-7.855,10.2-8.022,2.841-2.674s-2.674-3.677-2.674-4.513,15.878-17.883,15.878-17.883l6.853-4.68,7.855-5.348,1.5-3.51,5.348-5.515,10.362-5.348h4.513c.669,0,4.513-4.513,4.513-4.513l5.181-.334,6.351-3.343L387.806,36.2l92.091-1s.167,5.85-.167,6.685,1,3.677,1,3.677l-3.176,3.51,1.838,6.351-.836,3.343-3.343,3.008-1.337,3.008.167,15.376,4.345,5.014s-3.343,1.5-3.51,2.173,2.34,3.51,2.34,3.51l1.671,8.19s.167,6.351.167,7.354,1,5.515,1,5.515l-5.181,5.181-2.841,10.529,3.523,4.535.151-.3h-.151M460.677,424.116l-5.515,5.014-5.85,6.685-8.19,6.351-3.844,4.011.669-7.187,3.159-12.68" transform="translate(750.99 1371.005)"/><path class="e" d="M56.468,468.493H54.483l-.35,2.92,2.1,1.518,2.219,2.8,2.336,2.57,1.168,2.336a10.439,10.439,0,0,0,1.986,1.752c.467.117,3.971,0,3.971,0l4.672-.234-3.621-2.219-3.621-.117-3.037-2.92-1.986-2.219a3.377,3.377,0,0,0-.584-1.635,20.572,20.572,0,0,1-1.518-2.1l-.934-1.4Z" transform="translate(739.693 1207.892)"/><path class="d" d="M234.862,442.988s-4.49-4.694-5-4.9a17.987,17.987,0,0,1-2.041-1.327l-1.429-3.878s-2.551-1.939-2.653-2.755,0-4.184-.408-4.49a35.158,35.158,0,0,1-2.347-3.674s-2.143-1.531-2.143-2.041.306-2.143,0-2.551-3.878-4.082-3.878-4.082l-.306-2.653-1.429-4.286-2.143-2.551-2.551-4.184s-1.837-2.143-1.837-3.061,3.061-4.694,3.061-5.1,5.1-5.919,5.1-5.919l.714-1.531-1.939-2.653,2.449-1.531v-2.755h2.143l-.1-2.245,1.225-2.755,2.449-3.47,1.735-3.776,2.347-1.633,2.959-3.061s2.143-4.49,2.041-5.409-2.653-4.082-2.653-4.082a41.34,41.34,0,0,1,3.674-3.163c.408-.1,3.674-.2,3.674-.2s1.123-.918.714-1.225S233.535,344,233.535,344s-1.021-.408,1.429-.816,2.755-.1,2.551-1.02a31.38,31.38,0,0,1-.306-4.286c0-.816,1.429-2.449,1.429-2.959s.1-4.9.1-4.9,5.409-4.49,5.715-4.9l1.531-2.041-2.653-1.531v-1.327l2.245-2.347-.408-1.735.408-2.449" transform="translate(682.261 1266.166)"/><path class="e" d="M304.579,370.642l-1.605,2.943-1.249,3.032a17.451,17.451,0,0,0-1.605,2.943,10.638,10.638,0,0,1-1.338,2.319s-.357,2.5-.535,3.033-.981,1.605-.981,2.051a22.175,22.175,0,0,1-.892,2.854l1.159,1.249s.8-3.122,1.338-3.3,1.962-3.122,1.962-3.122l.535-3.478,2.587-1.249,1.07-1.695Z" transform="translate(648.502 1244.728)"/><path class="d" d="M279.066,410.693l.089,7.046,3.657.535.624.714-.535,2.141s-1.07.535-1.159,1.07-.714,1.962-.089,2.051,1.516,1.605,1.516,1.605l-.089,2.676,2.23,1.07,1.784,2.141.624,2.765,1.784.268,1.427,2.051s2.854,2.051,2.854,2.408,3.746,2.051,3.924,2.408,2.854.8,2.854.8.714,5.441,1.07,5.441a13.03,13.03,0,0,1,2.319,1.695,41.88,41.88,0,0,0,1.962,4.281,34.258,34.258,0,0,0,3.835,1.784,7.7,7.7,0,0,0,2.141.8c.624,0,2.587-.446,2.587.089a2.272,2.272,0,0,0,1.605,2.319c1.516.535,4.638-.535,4.906.178s-.624,1.784.8,1.873,3.122-.624,3.389.089,1.516,1.07,1.427,1.427a8.422,8.422,0,0,0,.535,2.051l2.23-1.873s2.854-.714,3.033.089,2.943,2.408,2.943,2.408-.357,2.587,0,2.587,5.887.535,5.887.535l1.695,1.784s3.211.8,3.211.446,1.962-1.07,1.962-1.07v3.746l3.746,2.23" transform="translate(655.018 1229.651)"/><path class="e" d="M320.089,412.1l-.624,3.924-.714,2.408.714,3.389a10.739,10.739,0,0,0-.8,2.051,28.193,28.193,0,0,1-1.784,3.657l-1.338,3.211v.357s2.765-1.605,2.943-2.141,1.07-3.122,1.07-3.122l3.033-2.141v-3.3l1.784-2.408v-1.873a26.27,26.27,0,0,0,1.249-3.033v-4.1l-1.605,1.873-1.16,2.676-.089,3.389-.8,2.587-1.427.268Z" transform="translate(641.287 1230.297)"/><path class="e" d="M343.091,374.5l-.8,6.868.268,5.708,1.427,1.784-.357,2.765,2.676.892v4.192l-.981,2.408,1.159,3.568-.089,11.952,1.516,1.962v3.657l1.338,1.07,1.427-3.033s-1.159-1.249-1.159-1.784-.089-5.173-.089-5.173l-1.338-1.516s-.268-4.816-.268-5.262,1.338-1.427,1.249-1.784a18.088,18.088,0,0,1,.178-2.5l1.427-1.873v-2.676l-1.427-.892v-2.854L348,390.648v-1.07s-1.784.089-1.784-.357.178-4.1.178-4.1l-1.338-1.516V379.32l-1.249-.446Z" transform="translate(631.218 1243.274)"/><path class="d" d="M331.561,405.964l3.122-.892,2.854-1.962,2.141-.714" transform="translate(635.256 1232.774)"/><path class="e" d="M367.17,365.493l-.535,1.249.089,6.154s.268,2.141-.357,2.141-1.249.892-1.249.892l-.8,1.427V381.1l1.427,2.408-.089,2.141,2.23,1.784,1.784,2.765.892,1.249.624,3.211,1.695,2.23s-.268,2.319.178,2.319a31.755,31.755,0,0,1,4.014,2.408l.981.268,1.249,2.408,1.07,2.051,1.784,1.605,1.07,1.962,1.784-2.141-1.962-2.854-1.962-1.962-2.943-3.389-2.676-2.5a13.381,13.381,0,0,1-1.338-2.141c-.268-.714.178-1.873-.268-2.23s-1.16-.714-1.16-1.427.714-2.051.178-2.408-2.141-1.427-1.962-1.873a5.358,5.358,0,0,0,.178-1.427s-.624-.446-1.427-.981a7.971,7.971,0,0,1-1.695-2.051v-6.154a3.409,3.409,0,0,1-.089-2.23,10.73,10.73,0,0,1,2.408-2.676s-2.23-.446-2.23-1.873.268-3.924.268-3.924Z" transform="translate(622.926 1246.666)"/><path class="d" d="M344,357.309c0-.357,1.427-1.605,1.427-1.605l4.192-2.051,6.689-1.605,3.568-.535-.535-2.141v-3.122c0-.357.535-3.568.535-3.568l1.962-2.051.535-3.122,4.816-.892h6.689l2.5-1.962s.714-1.784,1.338-1.784h3.033l.8-4.281h7.581L392.079,331l1.516.446,1.249-.089" transform="translate(630.572 1260.558)"/><path class="e" d="M389.578,365.207l-.8,2.408,2.23,2.587v3.657l1.516,2.587,1.159,1.784.624,2.051,2.765.535a9.06,9.06,0,0,1-1.516-1.873,21.169,21.169,0,0,1-.089-2.141l-1.605-.8-.089-1.516a1.549,1.549,0,0,1-.8-.981c-.089-.624,0-4.549,0-4.549l-.178-1.16Z" transform="translate(613.718 1246.774)"/><path class="e" d="M404.416,360.826s-2.051-.8-2.051-.089.8,4.281.714,4.638,1.784,1.695,1.784,1.695l2.23,2.854,1.605,1.07,2.765,2.854,1.962,1.427,1.338,2.765,1.07-.892-1.784-2.854-.268-1.249s-.624-1.249-.981-1.249-1.873.089-2.23-.357-3.3-4.281-3.3-4.281l-.089-.892-1.427-1.605v-2.943Z" transform="translate(608.603 1248.568)"/><path class="d" d="M416.332,340.2l2.408,1.873,1.784.981.357-4.816-1.516-2.319-1.427-2.765,1.784-1.605s-.714-1.695-.535-2.051a24.615,24.615,0,0,1,2.051-2.141l-.178-3.3s-2.765-.714-2.765-1.427V317.72s-1.873.178-1.784-.357-1.159-2.587-1.159-2.587l-1.873-2.051V309.96l-1.605-2.319-2.765-5.173-2.587-2.587s-2.23.268-2.23-.089a9.021,9.021,0,0,0-.357-2.051c-.178-.446-1.962-2.676-1.962-3.033s-7.046-14.895-7.046-14.895" transform="translate(611.403 1278.92)"/><path class="e" d="M440.2,313.292l12.119-.09,1.885,1.347,3.591.9,6.284.808s3.411-.269,3.5.269,0,3.95,0,3.95L465.7,322.09s-8.169-.09-8.528-.09-5.117.18-5.117.18-.9-2.065-1.436-2.065a31.162,31.162,0,0,1-3.86-1.347l-3.771-.539-.718-2.514L440.113,315Z" transform="translate(594.392 1266.351)"/><path class="d" d="M526.078,231.738l-2.6,3.411-2.783.9-2.424,2.873-2.873,1.8-3.232,1.8-3.052,2.873-1.347,3.232-2.514-2.244-1.885-3.322-3.591-2.424-.449-4.13s-.718-3.232-1.077-4.219a22.972,22.972,0,0,0-2.334-3.5l-1.706-2.155,1.8-2.244-2.334-2.514-1.077-.718,2.244-2.244-1.706-2.334a1.881,1.881,0,0,0-1.616-.718c-1.167,0-3.322-2.514-3.322-2.514s-1.347-1.975-1.167-2.334a17.657,17.657,0,0,0,.09-3.77,23.8,23.8,0,0,0-1.077-2.155l-.988-2.693-3.232-2.065-1.975-2.244-1.167-1.436-2.424-1.975a6.58,6.58,0,0,1-.9-1.8c0-.449-1.436-2.065-1.436-2.065l-2.244-2.334-.09-1.526-2.6,2.514-4.04.09L463.6,191.43l-2.155,1.885-2.244.987s-3.142.18-3.142-.269a1.238,1.238,0,0,0-.9-1.257c-.628-.09-4.219-.09-4.219-.09l-1.257-1.706-2.514.539" transform="translate(591.737 1313.881)"/><path class="d" d="M513.209,280.809v1.975l-1.975.988.359,3.95,2.514,2.693,2.6,1.436,3.142.18-.359,1.526-.988,2.6-2.334,2.065s-1.616,1.077-1.706,1.616-.09,6.733-.09,6.733l3.591.09,2.514,1.706,5.835,6.015s1.8,1.077,2.244.987a8.258,8.258,0,0,1,2.334.988s2.6-.359,3.052,0,4.04,3.591,4.04,3.591l4.668,2.693s2.873,2.334,3.232,2.154A13.1,13.1,0,0,0,547.5,323s4.758-.09,5.117-.09a18.358,18.358,0,0,0,2.6-1.167s2.783.09,3.232.539a31.8,31.8,0,0,0,3.86,1.975l2.693,1.347,3.86.18,2.783,1.975-.09,2.783s1.616,1.077,1.616,1.436.808,2.873.808,2.873l4.758-.269,3.232.9a36.225,36.225,0,0,1,3.681-1.706,30.8,30.8,0,0,0,3.411-1.616l2.873-.987,7.092-1.077s2.693.539,2.873.9a25.33,25.33,0,0,0,2.693,2.244l6.015,1.975,6.1,5.835,2.873,2.065,2.154-1.347,4.04.9,1.347,2.244,2.334,2.6,3.681-1.8,2.155-.988,2.065,1.347,2.424,1.077" transform="translate(567.619 1278.545)"/><path class="e" d="M732.391,223.934l-1.492,2.627-2.328,1.851-.179,3.462-.179,4.119s-1.612.239-1.612.537v3.7l-3.164,2.209-2.985,2.925-1.313.716-1.671,1.433a23.463,23.463,0,0,0-1.373,2.746c0,.3-.239,3.1-.239,3.1l-1.075.478-.06,3.343-1.373,1.134-1.075,2.627,1.015,1.671,2.567-1.731,3.582-2.328.06-1.97s-1.851-1.134-1.433-1.313a5.453,5.453,0,0,0,1.672-2.448c0-.537-.478-2.507-.119-2.925s2.627-3.642,2.985-3.7,4.835-4,4.835-4,.3-2.865.6-2.865,1.552-2.03,1.552-2.03l-.119-2.746,1.134-1.134s-.119-4.418,0-4.656,2.328-2.686,2.328-2.686Z" transform="translate(491.939 1299.955)"/><path class="d" d="M669.422,173.864l.06,2.089-1.791.6-.06,2.985,2.627,2.567s.06,2.686,0,3.283-1.015,5.373-1.015,5.373l-2.328,1.552-1.433-1.731-1.851.537s-1.194.836-1.194,1.373-.119,2.268-.119,2.268l-1.373,2.388-.239,2.209-.9,1.552v2.985l.955,2.03s2.627-.9,2.627-.418,2.03,1.671,2.03,1.671l1.851.418,2.448,2.03v2.388l.955,1.791,1.791,1.134.537,1.612,4.358-.239,1.791,2.507,1.791,2.627-.9,2.627,2.209,4.179,2.209,3.641,1.492,2.448.716,2.806a10.6,10.6,0,0,0-.716,1.075c-.179.358-2.209,3.1-2.209,3.1l-2.567,2.328.537,7.82,1.672,3.1a26.291,26.291,0,0,1,1.074,2.507c0,.239-.3,3.641,0,3.761a29.271,29.271,0,0,0,2.985.179l1.91,1.671,2.925-2.746s1.672-1.492,2.448-1.313a4.022,4.022,0,0,0,2.627-.478c.358-.358,1.671-1.91,1.671-1.91l2.03.06-.119,5.014,1.373,2.149v20l-2.567,5.074-2.925,5.134-1.731,1.134v5.253l.239,2.089,1.731,1.433-.836,2.448-1.552,3.343-1.194,2.328.478,4.358-1.851.955-2.03,6.626L688.584,336l-.239,6.388L686.734,344l1.91,1.552s0,4.835-.06,5.134-1.731,5.074-1.731,5.074l-4.059,4.716-.716,3.582-2.089,2.567-1.134,3.224-1.134,3.283-.06,8.775-1.671,1.791s-.239,2.388,0,2.567,1.851.955,1.851.955l-2.328,1.254,1.254,3.044,1.134,3.94-.179,3.044-2.149,1.075.955,5.731,1.194,1.791-1.015,5.85-.239,5.671-.3,2.507-1.254,1.851-1.194,4.716-.179,5.194,1.672,2.388,1.552,1.672-.6,6.328-1.313,1.194.117,3.8" transform="translate(511.688 1318.804)"/><path class="d" d="M576.3,441.372l-.164,2.951-4.016,2.7a21.437,21.437,0,0,1-2.7,1.967,14.1,14.1,0,0,1-3.442,1.147c-.492-.082-1.311-.82-2.541,0s-3.36,2.623-3.36,2.623l-3.688,2.295s-2.459,2.541-2.623,3.278-1.475,3.524-1.557,3.852-2.869,2.295-3.033,2.787a7.95,7.95,0,0,1-3.114,2.049c-.492,0-2.623,1.639-2.787,1.311s-1.557-2.623-1.967-2.623a14.624,14.624,0,0,0-3.114,1.147c-.574.328.328,1.8.328,1.8l-1.147,2.213s-2.787,2.951-3.852,2.541a15.662,15.662,0,0,1-3.2-2.541,25.925,25.925,0,0,0-3.524,1.639c-.246.328-2.295,1.885-2.295,1.885s-1.721,1.639-2.131,1.393-1.885-1.475-1.967-1.065-.164,3.2-.164,3.688,2.049,2.869,2.049,2.869l1.885,1.065" transform="translate(564.229 1218.102)"/><path class="d" d="M607.468,603.8a17.737,17.737,0,0,0,1.774-2.218v-2.144s2.144-.37,2.218-1.257.37-9.019.37-9.019l2.366-2.735.739-3.992,1.478-5.47,2.218-.813,3.1-.222v-3.622l3.1-2.587s2.292-3.253,2.587-3.474,2.44-2.883,2.44-2.883l3.4-.665.961-3.031a11.021,11.021,0,0,0,1.331-2.513c0-.518,1.109-2.883,1.774-2.883a23.067,23.067,0,0,0,3.179-.739l-.3-8.8a15.117,15.117,0,0,0,1.626-2.957,27.724,27.724,0,0,1,1.922-3.918,23.387,23.387,0,0,0,2.661-1.922c.148-.3,1.109-3.1,1.183-3.4s1.109-3.474,1.109-3.474l2.809-1.7-.074-4.288L653.08,521l1.257-2.218,1.626-.813" transform="translate(531.392 1189.267)"/><path class="e" d="M683.99,613.475l-.116,3.612v7.573l3.845,5.942.932,8.272.7,4.544,1.4-4.078-.117-4.427-.583-5.593-.816-5.593-2.68-2.214-1.282-4.661Z" transform="translate(502.63 1153.315)"/><path class="b" d="M462.378,131.932l-2.811,2.758-8.538,6.788-2.758.636-.742-2.28,2.015-3.023,2.546.53,4.561-3.818,3.076-4.137,2.6-.106.318,2.6Z" transform="translate(591.601 1335.587)"/><path class="b" d="M440.647,148.5l-1.8,1.485-1.061-.742-2.493.8-.53,1.909-.583.636,2.227,2.174,1.8-2.015,2.333-2.546.689-.849Z" transform="translate(596.627 1328.352)"/><path class="f" d="M642.086,51.812a.715.715,0,0,0-.273.078c-1.973.987-5.808-.389-8.223.818-1.532.766-5.281.643-6.177,2.884-1.311,3.278-.562,3.7-4.93,3.7-1.775,0-6.177-.318-6.177,1.637,0,.814.494,7.567,0,7.814-.793.4-4.077,1.643-6.158,2.475a18.849,18.849,0,0,1-7.4,1.637h-7.814c-3.005,0-3.607.593-6.041-.624-.548-.274-3.252,0-3.8-.273-1.085-.957.958-2.382-3.722-1.988-5.315.452-2.744-.132-3.7,3.7-.779,3.117-1.342,3.188-4.112,4.112-3.6,1.2-4.112.674-4.112,4.93,0,1.288.8,7.427,0,8.223-2.35,2.35-4.809,2.066-9.451,2.066-2.778,0-6.586.112-6.586,2.884,0,2.057-.754,5.93,0,7.814.957,2.392,1.756,6.976-3.293,6.976-1.986,0-6.567-.881-6.567,1.247,0,2.343.565,5.533,0,7.794-.808,3.233-5.12-.039-5.339.838-.4,1.6-2.066,4.977-2.066,6.567,0,3.192,2.475,4.9,2.475,7,0,3.49.818,4.347.818,7.814a25.961,25.961,0,0,1-.818,7c-.608,2.431-2.629,3.5-3.293,6.158a32.4,32.4,0,0,0-.818,7.814c0,2.665-.409,5.033-.409,7.814,0,3.981,1.111,5.687.818,9.86.678.169,1.361.272,2.046.409,1.394.279,2.653,2.359,3.7,2.884,1.424.712,1.685,2.489,3.293,3.293,1.786.893,4.044.665,5.339,1.637.727.545.409,6.214.409,7.4a21.4,21.4,0,0,0,.818,6.158c.8,3.2-2.441,2.552-1.637,5.768.363,1.452,4.548,1.975,5.748,2.455,2.357.943,3.731.847,5.359,2.475,1.317,1.317,5.125,1.754,6.567,2.475a11.534,11.534,0,0,1,3.293,2.864c1.933,1.933-.906,3.7,3.293,3.7,2.06,0,1.669-2.861,4.93-2.046,1.364.341-1.052,5.31-1.228,5.748-.5,1.26,5.945,2.475,7,2.475.814,0,2.858,2.043,3.683,2.455,3.53,1.765,4.717-.431,6.177-2.864,1.315-2.192,3.063-2.475,6.586-2.475,3.652,0,4.827,1.4,6.976,2.475,2.477,1.239,5.5,1.01,8.632,1.637,4.648.93,5.558-1.037,7.814-3.293,2.884-2.884,1.656-4.241,6.177-5.748a20.864,20.864,0,0,0,8.223-5.339c.231-.231.92-4.384,1.637-6.177.9-2.255,5.053-.589,7-2.046,2.676-2.007-3.642-2.3,4.112-6.177a38.773,38.773,0,0,0,5.748-3.7c1.89-1.418,2.884-2.443,2.884-5.339,0-3.24.79-4.516,3.293-5.768s3.185-.87,4.387-3.274l-1.547-3.312,1.849-6.509,4.079-7.8-3.02-5.69.231-8.415-1.621-12.7-3.131-4.38,2.8-10.446,5.225-5.225s-.994-4.512-.994-5.515-.175-7.346-.175-7.346l-1.676-8.2s-2.505-2.839-2.338-3.507,3.507-2.163,3.507-2.163l-4.271-4.91c-1.006.5-2.221,1.421-3.309,1.149-1.654-.413-4.181-1.771-5.359-2.066-2.874-.719-2.167-1.733-2.864-4.521-.49-1.96-1.5-1.912-2.884-3.293-1.436-1.436-1.637-2.238-1.637-5.339,0-2.894,1.236-5.317.818-7.4-.468-2.342-.992-4.749-1.656-7.4a5.9,5.9,0,0,0-2.864-3.683c-.957-.479-1.806,3.494-2.066,2.455C644.154,55.955,643.415,51.721,642.086,51.812Z" transform="translate(559.014 1364.75)"/></g></svg>